<svg id="visual" xmlns="http://www.w3.org/2000/svg" width="100%" ><path d="M0 27L17.3 26.3C34.7 25.7 69.3 24.3 104 23.2C138.7 22 173.3 21 208 22.5C242.7 24 277.3 28 311.8 25.7C346.3 23.3 380.7 14.7 415.2 12.7C449.7 10.7 484.3 15.3 519 18.7C553.7 22 588.3 24 623 23.7C657.7 23.3 692.3 20.7 727 19.7C761.7 18.7 796.3 19.3 831 17.5C865.7 15.7 900.3 11.3 934.8 14.3C969.3 17.3 1003.7 27.7 1038.2 31C1072.7 34.3 1107.3 30.7 1142 24.7C1176.7 18.7 1211.3 10.3 1246 7.5C1280.7 4.7 1315.3 7.3 1332.7 8.7L1350 10L1350 0L1332.7 0C1315.3 0 1280.7 0 1246 0C1211.3 0 1176.7 0 1142 0C1107.3 0 1072.7 0 1038.2 0C1003.7 0 969.3 0 934.8 0C900.3 0 865.7 0 831 0C796.3 0 761.7 0 727 0C692.3 0 657.7 0 623 0C588.3 0 553.7 0 519 0C484.3 0 449.7 0 415.2 0C380.7 0 346.3 0 311.8 0C277.3 0 242.7 0 208 0C173.3 0 138.7 0 104 0C69.3 0 34.7 0 17.3 0L0 0Z" fill="#E31C73" stroke-linecap="round" stroke-linejoin="miter"></path></svg>